PathFileType	4	(X/Y/Z)	Patient4_TMGait_0pt7_01_right_01.trc.trc
DataRate	CameraRate	NumFrames	NumMarkers	Units	OrigDataRate	OrigDataStartFrame	OrigNumFrames
85.889570552147	85.889570552147	6	33	mm	85.889570552147	106	       141
Frame#	Time	Sacral			L.Shoulder			Chest			R.Shoulder			Neck			R.ASIS			L.ASIS			R.Thigh.Superior			R.Thigh.Lateral			R.Thigh.Inferior			R.Patella			L.Thigh.Superior			L.Thigh.Lateral			L.Thigh.Inferior			L.Patella			L.Shank.Superior			L.Shank.Lateral			L.Shank.Inferior			R.Shank.Superior			R.Shank.Lateral			R.Shank.Inferior			R.Heel			R.Midfoot.Superior			R.Midfoot.Lateral			R.Toe			L.Heel			L.Midfoot.Lateral			L.Midfoot.Superior			L.Toe			L.Elbow			L.Wrist			R.Elbow			R.Wrist			
		X1	Y1	Z1	X2	Y2	Z2	X3	Y3	Z3	X4	Y4	Z4	X5	Y5	Z5	X6	Y6	Z6	X7	Y7	Z7	X8	Y8	Z8	X9	Y9	Z9	X10	Y10	Z10	X11	Y11	Z11	X12	Y12	Z12	X13	Y13	Z13	X14	Y14	Z14	X15	Y15	Z15	X16	Y16	Z16	X17	Y17	Z17	X18	Y18	Z18	X19	Y19	Z19	X20	Y20	Z20	X21	Y21	Z21	X22	Y22	Z22	X23	Y23	Z23	X24	Y24	Z24	X25	Y25	Z25	X26	Y26	Z26	X27	Y27	Z27	X28	Y28	Z28	X29	Y29	Z29	X30	Y30	Z30	X31	Y31	Z31	X32	Y32	Z32	X33	Y33	Z33	

106	1.772500000000	742.271442498451	1009.555951948203	490.181767894186	937.424003906660	1427.177666458517	302.433919820815	1026.029368256944	1366.012429793015	476.723027746149	927.005631665897	1451.658010271573	637.430456499804	923.027583541932	1498.303250166969	456.091117973123	961.448283875768	948.049895764656	623.114032824599	969.162639430651	966.685396063207	347.624901596631	1056.178118327145	795.177795098169	607.557690286798	1023.296933193704	671.667876117700	684.210411733578	1125.179003941814	642.038144520814	616.186889444742	1155.420249926439	531.656660501158	643.097280485209	994.154150126818	748.835389499133	375.379088331089	889.976164134287	641.855370591725	315.137524480477	965.541694579791	556.746304253800	375.763487784956	958.640628849162	490.654242592378	385.596340383629	934.861742784764	420.959529808200	380.232557034108	845.030908022886	302.886266453764	337.085655541191	905.986958696993	195.914229792506	409.097588696478	1089.388395449968	448.044725857765	638.648975961350	969.171352813232	388.946149823504	682.988649720068	977.111918947715	281.093657070785	630.464565202166	792.411884304339	186.563294577015	577.153612198784	963.234806160732	160.156712310288	636.965325773568	852.671774636574	137.982342866709	657.530987605471	1044.471091335699	62.075565183009	672.299209707114	785.797896167507	37.077880259502	463.265104650731	857.269181933815	34.756584988470	379.557504008457	940.294789501580	96.781286096040	402.452030240097	1068.267419519743	47.635207582237	371.699252008694	937.798108665010	1073.825187460612	193.543475860205	1136.891417801518	912.385457088117	184.744775128519	816.374977909961	1127.271517605235	763.038037365315	897.178225885840	879.081554659965	781.010711083063	
107	1.784142857143	740.983171107117	1008.985688019415	489.980388465139	936.493883289343	1426.538093175448	302.298063479989	1024.858448657373	1365.444709727403	476.744415378640	925.806949320402	1451.228135818386	637.317696845165	921.966613205906	1497.752084560122	455.835122596864	959.956057821822	947.348273640835	623.142363232467	968.524981524895	966.711764599882	347.422867185964	1055.176721533278	795.708327547797	607.467414939246	1023.457807461784	671.897222642945	684.120784914469	1125.295330366590	643.133954460136	615.802791246205	1157.196108193319	534.235272074903	642.901836043448	991.302474467412	747.979840540029	375.379738743235	885.896436405679	641.868061115446	314.993208785023	960.290469886845	556.053933026162	375.689135558624	952.690701354857	490.048416316674	385.580189558887	928.533864375731	420.605234018988	380.193393629748	838.145662944179	303.010044691745	336.920242772131	898.388145554755	195.728242252368	409.072547894805	1094.316420505983	448.981539297485	638.978981747675	977.051012172272	384.710910170654	683.846624622406	989.979917772868	276.932186258235	631.942828210387	809.814805671340	174.132040820863	579.291980112834	981.489267163448	154.999597868278	639.362241209499	871.960733222522	128.558777062695	660.038930756786	1066.704299847879	60.517621408278	675.515583579010	777.597014598005	37.098466084104	463.202146800962	849.063437756373	34.728714089870	379.536166384033	932.124814798456	96.739964799567	402.425126532709	1060.089252947146	47.534601370710	371.684964304989	939.417683536159	1073.623425751585	192.775990975004	1149.966814712669	928.450593499724	183.509060689722	811.892795411716	1128.049941489031	763.145475086033	875.723178904791	874.791766218533	785.262851182727	
108	1.795785714286	739.792041978852	1008.466604540511	489.940590460201	935.614467401272	1425.851071447500	302.266151203815	1023.793602718120	1364.851037817596	476.848084202361	924.763135506964	1450.811550240850	637.326481957847	921.020669152021	1497.156768355066	455.670683121048	958.617669190543	946.546443892490	623.271610843317	967.872884915165	966.636263588133	347.390426354786	1053.914825218333	795.735541657993	607.325675970896	1023.057158124803	671.638752863930	683.937577599032	1124.728422760177	643.534741185192	615.298827603335	1158.074822038175	536.269840949785	642.516174917057	988.395696471804	747.071870216528	375.423035636158	881.780940116907	641.871892328778	314.932487626746	954.994836552738	555.360074112386	375.704064967630	946.696565972329	489.435590569379	385.631510681904	922.161077665846	420.273566796596	380.200533158424	831.217212873181	303.155214920963	336.790071207700	890.765623674334	195.558233026503	409.068882292907	1098.569441692679	449.548087149822	639.229152145780	984.701966801684	380.071854910761	684.778669453642	1002.853716317705	272.603313928860	633.569472090584	827.901472895195	161.404526554360	581.652743859229	1000.087333821156	149.849029947141	642.034312154351	891.804396923989	119.076130603571	662.802575599209	1089.204040625141	59.293162332447	679.139775965524	769.402246587725	37.126504244403	463.127297596608	840.852073790448	34.700424194998	379.514142957782	923.953316848597	96.702742316804	402.398469893131	1051.904476485598	47.435591327339	371.673473977441	940.754983943708	1073.384127537376	192.254728607052	1161.591344399051	945.698205349645	182.602332859242	807.285025399606	1129.154118413038	763.418008211859	855.132311441609	872.386372616343	789.170899307314	
109	1.807428571429	738.712273765695	1008.008550879510	490.062021407130	934.800782202026	1425.138498572221	302.349695052709	1022.841362372318	1364.241767036678	477.045630604070	923.872667784243	1450.410985232787	637.466318433736	920.197928218555	1496.525266466661	455.614906003789	957.446092771221	945.663964941560	623.505012343593	967.218557063153	966.457967046251	347.549228173744	1052.399316983171	795.252573494237	607.133841565075	1022.069818530787	670.878043587591	683.661832888043	1123.470045069303	643.220534924310	614.684029253978	1158.042677029244	537.729525506752	641.914903293914	985.433418245911	746.114319318859	375.512433021047	877.613992562996	641.871128848342	314.957888863341	949.650176745033	554.665118538867	375.802034871743	940.664184570869	488.821649757925	385.737910112433	915.742271721224	419.969871863262	380.248741410124	824.235621143641	303.327586762438	336.702568168605	883.119633585472	195.407700585325	409.083742630867	1102.122591713106	449.754352057514	639.367783790074	992.125392633981	375.095650976703	685.779859006622	1015.672453288976	268.217018979876	635.298845358334	846.620884655686	148.591128916566	584.222445001616	1018.959125449544	144.859093276450	644.904211696914	912.147344249538	109.709258914951	665.765514254474	1111.854652351141	58.533920892540	683.013288938958	761.210847004370	37.163773197525	463.043528735080	832.636165361552	34.674184105247	379.492455732361	915.781056307530	96.668584694829	402.372040504844	1043.711801193929	47.337329733969	371.665752773186	941.866925156226	1073.130527613052	191.963714892642	1171.634047766647	963.966374391192	182.032503042906	802.534881134725	1130.584853910639	763.831941734611	835.611763688367	871.638087070808	792.735582602238	
110	1.819071428571	737.755138989303	1007.607854555986	490.343551159972	934.071122897104	1424.418493753033	302.563768742380	1022.007680549105	1363.618526341521	477.352432989911	923.133338894023	1450.017240520504	637.746300877153	919.505449749882	1495.860602511393	455.688930134063	956.450568781687	944.717523491329	623.846357184393	966.592927868731	966.183162822546	347.909960576665	1050.643518718742	794.256976172509	606.911267964986	1020.481644182435	669.610896180050	683.307704115147	1121.522527244877	642.182512961716	613.974267054937	1157.102781273255	538.593869326413	641.080657269744	982.418790808287	745.110776035507	375.653180475503	873.390876959798	641.867185524513	315.069342292582	944.262778870190	553.968757397345	375.975271807412	934.610048260908	488.210409010420	385.885638974803	909.287172883851	419.694557958073	380.330957267078	817.199616723925	303.530193038090	336.663439928207	875.453715703817	195.276720679560	409.113862807165	1104.956527426132	449.612539758250	639.366101925488	999.307905348276	369.850939259802	686.835512813843	1028.351593868287	263.876610707097	637.069589070134	865.866972479957	135.888667954790	586.972188037155	1037.998431324406	140.180816675362	647.872237600184	932.896111620757	100.620749728051	668.856022709764	1134.519884939413	58.363240832978	686.940390952674	753.019829209391	37.210972615198	462.955991700332	824.416843597608	34.652341622923	379.472021933828	907.608342673557	96.636194805969	402.346232304368	1035.510134311892	47.239745412522	371.662330609851	942.805689243646	1072.885418067270	191.880627999972	1179.998209171387	983.051074309984	181.804306866527	797.647344543397	1132.322033038169	764.374372211386	817.320313026892	872.281785177198	795.969967370086	
111	1.830714285714	736.929214698166	1007.246905181192	490.785414641960	933.444004667153	1423.702813378130	302.925745270497	1021.297311456648	1362.973908548280	477.785895639388	922.542775781169	1449.610023138702	638.174270519080	918.948129253851	1495.159926868641	455.915851702984	955.637374237381	943.719630447313	624.299125791740	966.033760959434	965.822626586440	348.470998525849	1048.669783898105	792.753021240015	606.691117512544	1018.297970403305	667.847029522389	682.901656281143	1118.904579626549	640.427718619997	613.189620108827	1155.279589345508	538.855703802775	640.006149760081	979.359883577181	744.064917510012	375.852038531302	869.121103416597	641.857950861546	315.264515517212	938.852606576373	553.269711640961	376.215336174361	928.561373364921	487.601541758007	386.062166422523	902.818457136326	419.441578170776	380.439865845556	810.119027600240	303.762428312967	336.676522315229	867.775925724604	195.161227519313	409.156134053534	1107.059634732190	449.135891386979	639.201089033687	1006.213783815695	364.409509395000	687.917038690279	1040.775895353839	259.674145417781	638.805851135610	885.464962609419	123.478019224723	589.850351599163	1057.047055491155	135.954513075843	650.818735775712	953.900220446039	91.958896457265	671.986538696047	1157.024719506127	58.886606013565	690.701605683713	744.826825823900	37.267573076996	462.871069318119	816.195215538512	34.636839982009	379.453501838205	899.435179123481	96.604203105713	402.321943315383	1027.298819259961	47.143585541593	371.663187288408	943.618687065884	1072.667311486820	191.978315139790	1186.627920905987	1002.712730730000	181.916493587698	792.648713392774	1134.326603700958	765.041525147120	800.368779345120	874.031015428590	798.897899061848	
